<?xml version="1.0" encoding="UTF-8"?>
<svg xmlns="http://www.w3.org/2000/svg" xmlns:xlink="http://www.w3.org/1999/xlink" width="431.72pt" height="112.47pt" viewBox="0 0 431.72 112.47" version="1.1">
<defs>
<clipPath id="clip1">
  <path d="M 0 85 L 430 85 L 430 112.46875 L 0 112.46875 Z M 0 85 "/>
</clipPath>
<clipPath id="clip2">
  <path d="M 0 0 L 431.71875 0 L 431.71875 76 L 0 76 Z M 0 0 "/>
</clipPath>
</defs>
<g id="surface1">
<g clip-path="url(#clip1)" clip-rule="nonzero">
<path style=" stroke:none;fill-rule:nonzero;fill:rgb(13.699341%,12.199402%,12.5%);fill-opacity:1;" d="M 429.175781 85.261719 L 425.164063 85.6875 L 425.164063 106.15625 L 429.175781 106.15625 Z M 414.703125 103.355469 C 414.429688 103.347656 414.179688 103.277344 413.972656 103.136719 C 413.757813 102.992188 413.59375 102.804688 413.472656 102.582031 C 413.347656 102.355469 413.28125 102.117188 413.28125 101.867188 C 413.289063 101.488281 413.425781 101.175781 413.683594 100.933594 C 413.945313 100.6875 414.285156 100.558594 414.703125 100.550781 L 416.828125 100.550781 L 416.828125 103.105469 C 416.820313 103.113281 416.699219 103.128906 416.472656 103.171875 C 416.25 103.214844 415.972656 103.25 415.648438 103.292969 C 415.324219 103.332031 415.011719 103.347656 414.703125 103.355469 Z M 422.046875 103.175781 L 420.875 103.175781 L 420.875 96.332031 C 420.863281 95.585938 420.703125 94.933594 420.390625 94.378906 C 420.078125 93.824219 419.667969 93.363281 419.15625 92.996094 C 418.648438 92.628906 418.101563 92.351563 417.503906 92.167969 C 416.914063 91.984375 416.332031 91.898438 415.765625 91.898438 C 415.40625 91.902344 415 91.949219 414.539063 92.042969 C 414.082031 92.136719 413.617188 92.257813 413.152344 92.394531 C 412.6875 92.535156 412.25 92.675781 411.855469 92.820313 C 411.457031 92.953125 411.136719 93.070313 410.894531 93.167969 C 410.644531 93.261719 410.519531 93.308594 410.515625 93.316406 L 411.511719 95.796875 C 411.515625 95.796875 411.613281 95.769531 411.804688 95.722656 C 411.992188 95.667969 412.238281 95.609375 412.535156 95.539063 C 412.832031 95.460938 413.148438 95.390625 413.480469 95.316406 C 413.8125 95.242188 414.113281 95.183594 414.402344 95.128906 C 414.695313 95.085938 414.921875 95.050781 415.09375 95.050781 C 415.429688 95.050781 415.722656 95.125 415.984375 95.253906 C 416.246094 95.386719 416.453125 95.574219 416.597656 95.808594 C 416.753906 96.046875 416.824219 96.332031 416.828125 96.648438 L 416.828125 98.070313 C 416.824219 98.070313 416.730469 98.058594 416.53125 98.035156 C 416.347656 98.019531 416.097656 97.992188 415.789063 97.964844 C 415.476563 97.933594 415.144531 97.910156 414.777344 97.890625 C 414.417969 97.867188 414.058594 97.855469 413.710938 97.855469 C 413.140625 97.855469 412.59375 97.957031 412.054688 98.148438 C 411.511719 98.34375 411.019531 98.625 410.578125 98.988281 C 410.140625 99.355469 409.796875 99.8125 409.53125 100.335938 C 409.273438 100.875 409.140625 101.476563 409.128906 102.148438 C 409.140625 102.816406 409.273438 103.414063 409.527344 103.945313 C 409.789063 104.476563 410.132813 104.933594 410.558594 105.308594 C 410.980469 105.683594 411.449219 105.972656 411.957031 106.175781 C 412.472656 106.378906 412.980469 106.476563 413.492188 106.476563 C 414.007813 106.472656 414.507813 106.40625 414.980469 106.277344 C 415.457031 106.152344 415.894531 105.996094 416.28125 105.824219 C 416.664063 105.648438 416.976563 105.488281 417.222656 105.34375 C 417.222656 105.347656 417.273438 105.40625 417.378906 105.523438 C 417.480469 105.636719 417.625 105.769531 417.800781 105.921875 C 417.980469 106.074219 418.179688 106.207031 418.402344 106.316406 C 418.628906 106.421875 418.859375 106.476563 419.101563 106.476563 C 419.453125 106.464844 419.828125 106.40625 420.226563 106.300781 C 420.628906 106.199219 421.003906 106.082031 421.359375 105.949219 C 421.714844 105.820313 422.003906 105.703125 422.230469 105.601563 C 422.453125 105.507813 422.570313 105.453125 422.574219 105.445313 Z M 394.054688 92.25 L 394.054688 106.15625 L 398.171875 106.15625 L 398.171875 95.300781 C 398.179688 95.292969 398.296875 95.277344 398.507813 95.238281 C 398.726563 95.195313 398.996094 95.160156 399.320313 95.117188 C 399.644531 95.078125 399.976563 95.058594 400.300781 95.050781 C 400.6875 95.050781 401.039063 95.09375 401.335938 95.1875 C 401.628906 95.289063 401.863281 95.488281 402.03125 95.78125 C 402.195313 96.070313 402.285156 96.5 402.285156 97.078125 L 402.285156 106.15625 L 406.4375 106.15625 L 406.4375 97.078125 C 406.429688 96.277344 406.28125 95.554688 406.003906 94.914063 C 405.71875 94.285156 405.339844 93.738281 404.851563 93.285156 C 404.359375 92.835938 403.816406 92.492188 403.203125 92.257813 C 402.59375 92.023438 401.953125 91.898438 401.292969 91.898438 C 400.6875 91.902344 400.152344 91.957031 399.671875 92.054688 C 399.199219 92.15625 398.792969 92.273438 398.453125 92.410156 C 398.109375 92.546875 397.839844 92.667969 397.636719 92.78125 L 396.894531 91.898438 Z M 381.53125 99.167969 C 381.53125 98.628906 381.566406 98.109375 381.652344 97.605469 C 381.730469 97.101563 381.878906 96.640625 382.074219 96.242188 C 382.273438 95.839844 382.539063 95.515625 382.882813 95.277344 C 383.21875 95.042969 383.644531 94.914063 384.15625 94.910156 C 384.679688 94.914063 385.109375 95.042969 385.453125 95.277344 C 385.789063 95.515625 386.0625 95.839844 386.257813 96.242188 C 386.449219 96.640625 386.589844 97.101563 386.664063 97.605469 C 386.746094 98.109375 386.78125 98.628906 386.78125 99.167969 C 386.78125 99.703125 386.746094 100.214844 386.664063 100.730469 C 386.589844 101.238281 386.449219 101.699219 386.257813 102.117188 C 386.0625 102.53125 385.789063 102.863281 385.453125 103.113281 C 385.109375 103.359375 384.679688 103.488281 384.15625 103.496094 C 383.644531 103.488281 383.21875 103.359375 382.882813 103.113281 C 382.539063 102.863281 382.273438 102.53125 382.074219 102.117188 C 381.878906 101.699219 381.730469 101.238281 381.652344 100.730469 C 381.566406 100.214844 381.53125 99.703125 381.53125 99.167969 Z M 377.417969 99.167969 C 377.417969 100.226563 377.578125 101.199219 377.882813 102.085938 C 378.191406 102.96875 378.636719 103.738281 379.222656 104.390625 C 379.800781 105.042969 380.507813 105.542969 381.335938 105.898438 C 382.171875 106.257813 383.109375 106.433594 384.15625 106.441406 C 385.214844 106.433594 386.164063 106.257813 386.996094 105.898438 C 387.835938 105.542969 388.546875 105.042969 389.132813 104.390625 C 389.714844 103.738281 390.160156 102.96875 390.46875 102.085938 C 390.773438 101.199219 390.933594 100.226563 390.933594 99.167969 C 390.933594 98.109375 390.773438 97.132813 390.46875 96.253906 C 390.152344 95.367188 389.699219 94.597656 389.121094 93.945313 C 388.523438 93.300781 387.816406 92.796875 386.984375 92.4375 C 386.148438 92.078125 385.203125 91.902344 384.15625 91.898438 C 383.117188 91.902344 382.183594 92.078125 381.355469 92.4375 C 380.519531 92.796875 379.816406 93.300781 379.230469 93.945313 C 378.644531 94.597656 378.199219 95.367188 377.882813 96.253906 C 377.578125 97.132813 377.417969 98.109375 377.417969 99.167969 Z M 369.863281 88.882813 C 369.867188 89.277344 369.96875 89.636719 370.164063 89.964844 C 370.363281 90.285156 370.632813 90.546875 370.96875 90.742188 C 371.300781 90.9375 371.675781 91.039063 372.097656 91.042969 C 372.503906 91.039063 372.878906 90.9375 373.214844 90.742188 C 373.550781 90.546875 373.816406 90.285156 374.015625 89.964844 C 374.226563 89.636719 374.328125 89.277344 374.332031 88.882813 C 374.328125 88.484375 374.226563 88.125 374.015625 87.796875 C 373.816406 87.472656 373.550781 87.214844 373.214844 87.019531 C 372.878906 86.820313 372.503906 86.722656 372.097656 86.71875 C 371.675781 86.722656 371.300781 86.820313 370.96875 87.019531 C 370.632813 87.214844 370.363281 87.472656 370.164063 87.796875 C 369.96875 88.125 369.867188 88.484375 369.863281 88.882813 Z M 374.296875 106.15625 L 374.296875 92.425781 L 368.65625 92.855469 L 368.65625 95.40625 L 370.359375 95.726563 L 370.359375 106.15625 Z M 366.914063 92.394531 C 366.910156 92.394531 366.796875 92.367188 366.574219 92.324219 C 366.355469 92.273438 366.070313 92.222656 365.730469 92.164063 C 365.386719 92.101563 365.023438 92.050781 364.640625 92 C 364.261719 91.957031 363.910156 91.929688 363.585938 91.929688 C 362.613281 91.929688 361.703125 92.066406 360.855469 92.347656 C 360.011719 92.625 359.265625 93.046875 358.621094 93.636719 C 357.972656 94.222656 357.464844 94.964844 357.085938 95.882813 C 356.703125 96.800781 356.492188 97.890625 356.453125 99.167969 C 356.433594 100.429688 356.570313 101.511719 356.875 102.417969 C 357.179688 103.332031 357.605469 104.074219 358.160156 104.664063 C 358.710938 105.246094 359.355469 105.683594 360.089844 105.96875 C 360.824219 106.253906 361.605469 106.398438 362.445313 106.40625 C 362.914063 106.421875 363.417969 106.363281 363.953125 106.253906 C 364.492188 106.144531 365.042969 105.992188 365.601563 105.792969 C 366.15625 105.589844 366.683594 105.351563 367.203125 105.09375 C 367.160156 104.804688 367.117188 104.53125 367.070313 104.289063 C 367.015625 104.046875 366.992188 103.875 366.988281 103.78125 C 366.988281 103.726563 366.980469 103.632813 366.976563 103.503906 C 366.972656 103.363281 366.972656 103.234375 366.964844 103.101563 C 366.957031 102.96875 366.949219 102.878906 366.949219 102.820313 C 366.878906 102.851563 366.722656 102.890625 366.492188 102.953125 C 366.261719 103.015625 365.984375 103.078125 365.652344 103.140625 C 365.316406 103.207031 364.960938 103.261719 364.578125 103.300781 C 364.195313 103.34375 363.820313 103.359375 363.441406 103.355469 C 362.886719 103.34375 362.410156 103.222656 362.03125 102.980469 C 361.648438 102.753906 361.347656 102.441406 361.125 102.050781 C 360.894531 101.652344 360.730469 101.207031 360.644531 100.71875 C 360.550781 100.222656 360.511719 99.707031 360.53125 99.167969 C 360.550781 98.628906 360.609375 98.109375 360.703125 97.613281 C 360.796875 97.109375 360.9375 96.664063 361.128906 96.269531 C 361.3125 95.859375 361.550781 95.550781 361.828125 95.316406 C 362.109375 95.09375 362.445313 94.976563 362.839844 94.984375 L 366.527344 94.984375 Z M 347.050781 103.355469 C 346.777344 103.347656 346.53125 103.277344 346.316406 103.136719 C 346.105469 102.992188 345.941406 102.804688 345.820313 102.582031 C 345.699219 102.355469 345.632813 102.117188 345.632813 101.867188 C 345.640625 101.488281 345.773438 101.175781 346.03125 100.933594 C 346.292969 100.6875 346.636719 100.558594 347.050781 100.550781 L 349.179688 100.550781 L 349.179688 103.105469 C 349.171875 103.113281 349.050781 103.128906 348.824219 103.171875 C 348.601563 103.214844 348.320313 103.25 347.996094 103.292969 C 347.671875 103.332031 347.355469 103.347656 347.050781 103.355469 Z M 354.394531 103.175781 L 353.222656 103.175781 L 353.222656 96.332031 C 353.210938 95.585938 353.054688 94.933594 352.738281 94.378906 C 352.429688 93.824219 352.019531 93.363281 351.507813 92.996094 C 351 92.628906 350.449219 92.351563 349.855469 92.167969 C 349.261719 91.984375 348.683594 91.898438 348.117188 91.898438 C 347.757813 91.902344 347.347656 91.949219 346.886719 92.042969 C 346.429688 92.136719 345.972656 92.257813 345.503906 92.394531 C 345.035156 92.535156 344.597656 92.675781 344.199219 92.820313 C 343.804688 92.953125 343.484375 93.070313 343.246094 93.167969 C 342.996094 93.261719 342.871094 93.308594 342.863281 93.316406 L 343.859375 95.796875 C 343.863281 95.796875 343.964844 95.769531 344.152344 95.722656 C 344.34375 95.667969 344.585938 95.609375 344.886719 95.539063 C 345.183594 95.460938 345.496094 95.390625 345.828125 95.316406 C 346.160156 95.242188 346.464844 95.183594 346.757813 95.128906 C 347.046875 95.085938 347.269531 95.050781 347.441406 95.050781 C 347.78125 95.050781 348.074219 95.125 348.335938 95.253906 C 348.59375 95.386719 348.804688 95.574219 348.949219 95.808594 C 349.105469 96.046875 349.175781 96.332031 349.179688 96.648438 L 349.179688 98.070313 C 349.175781 98.070313 349.078125 98.058594 348.886719 98.035156 C 348.695313 98.019531 348.449219 97.992188 348.136719 97.964844 C 347.824219 97.933594 347.496094 97.910156 347.125 97.890625 C 346.769531 97.867188 346.40625 97.855469 346.058594 97.855469 C 345.492188 97.855469 344.9375 97.957031 344.402344 98.148438 C 343.859375 98.34375 343.367188 98.625 342.929688 98.988281 C 342.492188 99.355469 342.144531 99.8125 341.882813 100.335938 C 341.625 100.875 341.488281 101.476563 341.480469 102.148438 C 341.488281 102.816406 341.625 103.414063 341.878906 103.945313 C 342.140625 104.476563 342.480469 104.933594 342.90625 105.308594 C 343.332031 105.683594 343.800781 105.972656 344.308594 106.175781 C 344.824219 106.378906 345.332031 106.476563 345.847656 106.476563 C 346.359375 106.472656 346.855469 106.40625 347.328125 106.277344 C 347.808594 106.152344 348.238281 105.996094 348.632813 105.824219 C 349.015625 105.648438 349.328125 105.488281 349.570313 105.34375 C 349.570313 105.347656 349.625 105.40625 349.730469 105.523438 C 349.832031 105.636719 349.972656 105.769531 350.148438 105.921875 C 350.324219 106.074219 350.527344 106.207031 350.75 106.316406 C 350.976563 106.421875 351.207031 106.476563 351.449219 106.476563 C 351.804688 106.464844 352.175781 106.40625 352.578125 106.300781 C 352.976563 106.199219 353.351563 106.082031 353.710938 105.949219 C 354.0625 105.820313 354.351563 105.703125 354.578125 105.601563 C 354.800781 105.507813 354.917969 105.453125 354.925781 105.445313 Z M 326.40625 92.25 L 326.40625 106.15625 L 330.519531 106.15625 L 330.519531 95.300781 C 330.527344 95.292969 330.644531 95.277344 330.855469 95.238281 C 331.078125 95.195313 331.347656 95.160156 331.671875 95.117188 C 331.988281 95.078125 332.324219 95.058594 332.648438 95.050781 C 333.039063 95.050781 333.386719 95.09375 333.683594 95.1875 C 333.980469 95.289063 334.21875 95.488281 334.382813 95.78125 C 334.546875 96.070313 334.636719 96.5 334.636719 97.078125 L 334.636719 106.15625 L 338.78125 106.15625 L 338.78125 97.078125 C 338.78125 96.277344 338.632813 95.554688 338.355469 94.914063 C 338.070313 94.285156 337.6875 93.738281 337.203125 93.285156 C 336.710938 92.835938 336.164063 92.492188 335.554688 92.257813 C 334.945313 92.023438 334.304688 91.898438 333.640625 91.898438 C 333.039063 91.902344 332.5 91.957031 332.023438 92.054688 C 331.550781 92.15625 331.140625 92.273438 330.804688 92.410156 C 330.460938 92.546875 330.1875 92.667969 329.988281 92.78125 L 329.242188 91.898438 Z M 302.28125 92.25 L 302.28125 106.15625 L 306.398438 106.15625 L 306.398438 95.300781 C 306.402344 95.292969 306.519531 95.277344 306.734375 95.238281 C 306.953125 95.195313 307.222656 95.160156 307.550781 95.117188 C 307.867188 95.078125 308.199219 95.058594 308.527344 95.050781 C 308.914063 95.050781 309.265625 95.09375 309.558594 95.1875 C 309.855469 95.289063 310.09375 95.488281 310.257813 95.78125 C 310.421875 96.070313 310.511719 96.5 310.511719 97.078125 L 310.511719 106.15625 L 314.664063 106.15625 L 314.664063 97.078125 C 314.65625 96.277344 314.511719 95.554688 314.230469 94.914063 C 313.945313 94.285156 313.5625 93.738281 313.074219 93.285156 C 312.589844 92.835938 312.042969 92.492188 311.425781 92.257813 C 310.816406 92.023438 310.183594 91.898438 309.519531 91.898438 C 308.914063 91.902344 308.375 91.957031 307.898438 92.054688 C 307.421875 92.15625 307.019531 92.273438 306.683594 92.410156 C 306.339844 92.546875 306.066406 92.667969 305.867188 92.78125 L 305.121094 91.898438 Z M 293.90625 91.542969 L 296.570313 86.785156 L 292.5625 86.785156 L 290.785156 91.542969 Z M 289.757813 99.167969 C 289.757813 98.628906 289.796875 98.109375 289.878906 97.605469 C 289.960938 97.101563 290.101563 96.640625 290.304688 96.242188 C 290.496094 95.839844 290.765625 95.515625 291.109375 95.277344 C 291.445313 95.042969 291.871094 94.914063 292.386719 94.910156 C 292.902344 94.914063 293.339844 95.042969 293.679688 95.277344 C 294.019531 95.515625 294.289063 95.839844 294.480469 96.242188 C 294.679688 96.640625 294.8125 97.101563 294.894531 97.605469 C 294.972656 98.109375 295.011719 98.628906 295.011719 99.167969 C 295.011719 99.703125 294.972656 100.214844 294.894531 100.730469 C 294.8125 101.238281 294.679688 101.699219 294.480469 102.117188 C 294.289063 102.53125 294.019531 102.863281 293.679688 103.113281 C 293.339844 103.359375 292.902344 103.488281 292.386719 103.496094 C 291.871094 103.488281 291.445313 103.359375 291.109375 103.113281 C 290.765625 102.863281 290.496094 102.53125 290.304688 102.117188 C 290.101563 101.699219 289.960938 101.238281 289.878906 100.730469 C 289.796875 100.214844 289.757813 99.703125 289.757813 99.167969 Z M 285.644531 99.167969 C 285.644531 100.226563 285.804688 101.199219 286.109375 102.085938 C 286.414063 102.96875 286.859375 103.738281 287.449219 104.390625 C 288.027344 105.042969 288.734375 105.542969 289.566406 105.898438 C 290.398438 106.257813 291.335938 106.433594 292.386719 106.441406 C 293.441406 106.433594 294.390625 106.257813 295.222656 105.898438 C 296.0625 105.542969 296.769531 105.042969 297.359375 104.390625 C 297.941406 103.738281 298.382813 102.96875 298.691406 102.085938 C 299 101.199219 299.160156 100.226563 299.160156 99.167969 C 299.160156 98.109375 299 97.132813 298.691406 96.253906 C 298.382813 95.367188 297.929688 94.597656 297.34375 93.945313 C 296.753906 93.300781 296.042969 92.796875 295.210938 92.4375 C 294.378906 92.078125 293.433594 91.902344 292.386719 91.898438 C 291.34375 91.902344 290.410156 92.078125 289.582031 92.4375 C 288.75 92.796875 288.042969 93.300781 287.457031 93.945313 C 286.875 94.597656 286.421875 95.367188 286.109375 96.253906 C 285.804688 97.132813 285.644531 98.109375 285.644531 99.167969 Z M 278.796875 88.882813 C 278.800781 89.277344 278.902344 89.636719 279.097656 89.964844 C 279.300781 90.285156 279.566406 90.546875 279.902344 90.742188 C 280.234375 90.9375 280.613281 91.039063 281.035156 91.042969 C 281.4375 91.039063 281.8125 90.9375 282.148438 90.742188 C 282.484375 90.546875 282.753906 90.285156 282.953125 89.964844 C 283.160156 89.636719 283.265625 89.277344 283.265625 88.882813 C 283.265625 88.484375 283.160156 88.125 282.953125 87.796875 C 282.753906 87.472656 282.484375 87.214844 282.148438 87.019531 C 281.8125 86.820313 281.4375 86.722656 281.035156 86.71875 C 280.613281 86.722656 280.234375 86.820313 279.902344 87.019531 C 279.566406 87.214844 279.300781 87.472656 279.097656 87.796875 C 278.902344 88.125 278.800781 88.484375 278.796875 88.882813 Z M 283.230469 106.15625 L 283.230469 92.425781 L 277.59375 92.855469 L 277.59375 95.40625 L 279.292969 95.726563 L 279.292969 106.15625 Z M 275.855469 92.394531 C 275.847656 92.394531 275.734375 92.367188 275.511719 92.324219 C 275.289063 92.273438 275.007813 92.222656 274.664063 92.164063 C 274.320313 92.101563 273.960938 92.050781 273.574219 92 C 273.199219 91.957031 272.84375 91.929688 272.519531 91.929688 C 271.550781 91.929688 270.640625 92.066406 269.792969 92.347656 C 268.945313 92.625 268.199219 93.046875 267.558594 93.636719 C 266.910156 94.222656 266.398438 94.964844 266.019531 95.882813 C 265.644531 96.800781 265.429688 97.890625 265.386719 99.167969 C 265.371094 100.429688 265.507813 101.511719 265.8125 102.417969 C 266.113281 103.332031 266.542969 104.074219 267.09375 104.664063 C 267.644531 105.246094 268.292969 105.683594 269.023438 105.96875 C 269.757813 106.253906 270.542969 106.398438 271.382813 106.40625 C 271.851563 106.421875 272.351563 106.363281 272.890625 106.253906 C 273.429688 106.144531 273.980469 105.992188 274.535156 105.792969 C 275.09375 105.589844 275.625 105.351563 276.136719 105.09375 C 276.097656 104.804688 276.054688 104.53125 276.003906 104.289063 C 275.953125 104.046875 275.933594 103.875 275.925781 103.78125 C 275.925781 103.726563 275.917969 103.632813 275.914063 103.503906 C 275.90625 103.363281 275.90625 103.234375 275.898438 103.101563 C 275.894531 102.96875 275.890625 102.878906 275.890625 102.820313 C 275.8125 102.851563 275.65625 102.890625 275.429688 102.953125 C 275.195313 103.015625 274.921875 103.078125 274.589844 103.140625 C 274.253906 103.207031 273.898438 103.261719 273.515625 103.300781 C 273.132813 103.34375 272.753906 103.359375 272.375 103.355469 C 271.824219 103.34375 271.347656 103.222656 270.96875 102.980469 C 270.589844 102.753906 270.28125 102.441406 270.058594 102.050781 C 269.828125 101.652344 269.667969 101.207031 269.578125 100.71875 C 269.484375 100.222656 269.449219 99.707031 269.46875 99.167969 C 269.484375 98.628906 269.546875 98.109375 269.640625 97.613281 C 269.734375 97.109375 269.878906 96.664063 270.0625 96.269531 C 270.246094 95.859375 270.484375 95.550781 270.761719 95.316406 C 271.046875 95.09375 271.382813 94.976563 271.773438 94.984375 L 275.464844 94.984375 Z M 255.988281 103.355469 C 255.714844 103.347656 255.46875 103.277344 255.257813 103.136719 C 255.039063 102.992188 254.875 102.804688 254.757813 102.582031 C 254.632813 102.355469 254.570313 102.117188 254.570313 101.867188 C 254.574219 101.488281 254.710938 101.175781 254.96875 100.933594 C 255.230469 100.6875 255.574219 100.558594 255.988281 100.550781 L 258.113281 100.550781 L 258.113281 103.105469 C 258.105469 103.113281 257.984375 103.128906 257.761719 103.171875 C 257.539063 103.214844 257.257813 103.25 256.933594 103.292969 C 256.605469 103.332031 256.296875 103.347656 255.988281 103.355469 Z M 263.328125 103.175781 L 262.15625 103.175781 L 262.15625 96.332031 C 262.144531 95.585938 261.988281 94.933594 261.675781 94.378906 C 261.363281 93.824219 260.953125 93.363281 260.445313 92.996094 C 259.9375 92.628906 259.390625 92.351563 258.789063 92.167969 C 258.199219 91.984375 257.617188 91.898438 257.050781 91.898438 C 256.691406 91.902344 256.28125 91.949219 255.824219 92.042969 C 255.367188 92.136719 254.90625 92.257813 254.4375 92.394531 C 253.972656 92.535156 253.535156 92.675781 253.136719 92.820313 C 252.738281 92.953125 252.421875 93.070313 252.179688 93.167969 C 251.933594 93.261719 251.804688 93.308594 251.800781 93.316406 L 252.792969 95.796875 C 252.800781 95.796875 252.898438 95.769531 253.089844 95.722656 C 253.277344 95.667969 253.519531 95.609375 253.820313 95.539063 C 254.117188 95.460938 254.429688 95.390625 254.761719 95.316406 C 255.097656 95.242188 255.402344 95.183594 255.691406 95.128906 C 255.980469 95.085938 256.203125 95.050781 256.375 95.050781 C 256.714844 95.050781 257.011719 95.125 257.269531 95.253906 C 257.53125 95.386719 257.738281 95.574219 257.882813 95.808594 C 258.039063 96.046875 258.113281 96.332031 258.113281 96.648438 L 258.113281 98.070313 C 258.113281 98.070313 258.015625 98.058594 257.820313 98.035156 C 257.628906 98.019531 257.382813 97.992188 257.074219 97.964844 C 256.761719 97.933594 256.433594 97.910156 256.0625 97.890625 C 255.703125 97.867188 255.34375 97.855469 254.992188 97.855469 C 254.425781 97.855469 253.875 97.957031 253.339844 98.148438 C 252.792969 98.34375 252.304688 98.625 251.863281 98.988281 C 251.429688 99.355469 251.078125 99.8125 250.820313 100.335938 C 250.558594 100.875 250.425781 101.476563 250.421875 102.148438 C 250.425781 102.816406 250.558594 103.414063 250.816406 103.945313 C 251.074219 104.476563 251.417969 104.933594 251.84375 105.308594 C 252.269531 105.683594 252.734375 105.972656 253.242188 106.175781 C 253.757813 106.378906 254.265625 106.476563 254.78125 106.476563 C 255.296875 106.472656 255.792969 106.40625 256.265625 106.277344 C 256.742188 106.152344 257.175781 105.996094 257.566406 105.824219 C 257.949219 105.648438 258.265625 105.488281 258.507813 105.34375 C 258.507813 105.347656 258.558594 105.40625 258.664063 105.523438 C 258.765625 105.636719 258.90625 105.769531 259.085938 105.921875 C 259.265625 106.074219 259.464844 106.207031 259.6875 106.316406 C 259.910156 106.421875 260.140625 106.476563 260.386719 106.476563 C 260.738281 106.464844 261.113281 106.40625 261.519531 106.300781 C 261.910156 106.199219 262.289063 106.082031 262.644531 105.949219 C 262.996094 105.820313 263.285156 105.703125 263.511719 105.601563 C 263.738281 105.507813 263.859375 105.453125 263.863281 105.445313 Z M 249.640625 91.542969 C 248.9375 91.605469 248.304688 91.730469 247.722656 91.914063 C 247.148438 92.097656 246.648438 92.296875 246.230469 92.519531 C 245.804688 92.738281 245.476563 92.929688 245.238281 93.105469 L 244.496094 91.898438 L 243.144531 92.039063 C 242.96875 92.074219 242.75 92.101563 242.492188 92.128906 C 242.242188 92.152344 241.957031 92.179688 241.652344 92.214844 L 241.652344 106.15625 L 245.734375 106.15625 L 245.734375 95.832031 C 245.738281 95.832031 245.859375 95.808594 246.078125 95.769531 C 246.296875 95.726563 246.582031 95.675781 246.925781 95.617188 C 247.269531 95.566406 247.636719 95.515625 248.023438 95.472656 C 248.40625 95.429688 248.769531 95.40625 249.105469 95.40625 Z M 232.714844 94.878906 C 233.015625 94.878906 233.296875 94.96875 233.554688 95.160156 C 233.8125 95.351563 234.039063 95.636719 234.21875 96.023438 C 234.394531 96.40625 234.507813 96.886719 234.558594 97.464844 L 230.484375 97.464844 C 230.519531 96.84375 230.617188 96.355469 230.765625 96 C 230.917969 95.644531 231.101563 95.386719 231.320313 95.226563 C 231.539063 95.066406 231.769531 94.964844 232.011719 94.929688 C 232.253906 94.890625 232.492188 94.871094 232.714844 94.878906 Z M 232.640625 91.898438 C 231.394531 91.898438 230.296875 92.179688 229.351563 92.738281 C 228.402344 93.292969 227.671875 94.109375 227.140625 95.183594 C 226.609375 96.269531 226.34375 97.59375 226.328125 99.167969 C 226.335938 100.335938 226.496094 101.386719 226.800781 102.296875 C 227.117188 103.207031 227.554688 103.976563 228.109375 104.601563 C 228.664063 105.238281 229.316406 105.710938 230.054688 106.019531 C 230.796875 106.339844 231.605469 106.492188 232.46875 106.476563 C 233.296875 106.449219 234.046875 106.371094 234.726563 106.234375 C 235.398438 106.097656 235.984375 105.945313 236.472656 105.769531 C 236.960938 105.605469 237.339844 105.453125 237.601563 105.328125 C 237.863281 105.199219 237.996094 105.136719 238 105.128906 L 237.683594 102.644531 C 237.527344 102.683594 237.296875 102.738281 236.992188 102.8125 C 236.679688 102.882813 236.328125 102.960938 235.9375 103.035156 C 235.542969 103.113281 235.132813 103.175781 234.707031 103.234375 C 234.289063 103.292969 233.882813 103.320313 233.496094 103.320313 C 232.921875 103.320313 232.414063 103.195313 231.96875 102.949219 C 231.527344 102.699219 231.167969 102.332031 230.894531 101.847656 C 230.621094 101.363281 230.460938 100.765625 230.410156 100.054688 L 238.179688 100.230469 C 238.1875 100.191406 238.21875 100.132813 238.25 100.042969 C 238.285156 99.957031 238.320313 99.863281 238.355469 99.769531 C 238.390625 99.683594 238.414063 99.613281 238.425781 99.558594 C 238.445313 99.535156 238.46875 99.5 238.492188 99.460938 C 238.515625 99.410156 238.53125 99.382813 238.53125 99.382813 C 238.554688 99.234375 238.570313 99.074219 238.582031 98.894531 C 238.597656 98.714844 238.605469 98.53125 238.605469 98.351563 C 238.597656 96.921875 238.359375 95.726563 237.886719 94.769531 C 237.414063 93.8125 236.730469 93.097656 235.839844 92.617188 C 234.957031 92.136719 233.890625 91.898438 232.640625 91.898438 Z M 211.078125 92.25 L 211.078125 106.15625 L 215.191406 106.15625 L 215.191406 95.300781 C 215.195313 95.292969 215.316406 95.277344 215.527344 95.238281 C 215.746094 95.195313 216.019531 95.160156 216.34375 95.117188 C 216.664063 95.078125 216.996094 95.058594 217.320313 95.050781 C 217.710938 95.050781 218.058594 95.09375 218.355469 95.1875 C 218.648438 95.289063 218.886719 95.488281 219.054688 95.78125 C 219.21875 96.070313 219.304688 96.5 219.304688 97.078125 L 219.304688 106.15625 L 223.457031 106.15625 L 223.457031 97.078125 C 223.449219 96.277344 223.300781 95.554688 223.023438 94.914063 C 222.742188 94.285156 222.355469 93.738281 221.875 93.285156 C 221.378906 92.835938 220.839844 92.492188 220.222656 92.257813 C 219.613281 92.023438 218.972656 91.898438 218.3125 91.898438 C 217.710938 91.902344 217.171875 91.957031 216.691406 92.054688 C 216.21875 92.15625 215.8125 92.273438 215.476563 92.410156 C 215.128906 92.546875 214.859375 92.667969 214.65625 92.78125 L 213.914063 91.898438 Z M 202.066406 94.878906 C 202.367188 94.878906 202.644531 94.96875 202.90625 95.160156 C 203.164063 95.351563 203.390625 95.636719 203.566406 96.023438 C 203.742188 96.40625 203.859375 96.886719 203.910156 97.464844 L 199.832031 97.464844 C 199.871094 96.84375 199.96875 96.355469 200.113281 96 C 200.269531 95.644531 200.449219 95.386719 200.671875 95.226563 C 200.886719 95.066406 201.117188 94.964844 201.363281 94.929688 C 201.605469 94.890625 201.839844 94.871094 202.066406 94.878906 Z M 201.992188 91.898438 C 200.738281 91.898438 199.648438 92.179688 198.699219 92.738281 C 197.753906 93.292969 197.023438 94.109375 196.492188 95.183594 C 195.957031 96.269531 195.691406 97.59375 195.679688 99.167969 C 195.6875 100.335938 195.84375 101.386719 196.152344 102.296875 C 196.46875 103.207031 196.90625 103.976563 197.460938 104.601563 C 198.015625 105.238281 198.664063 105.710938 199.402344 106.019531 C 200.148438 106.339844 200.953125 106.492188 201.816406 106.476563 C 202.644531 106.449219 203.394531 106.371094 204.074219 106.234375 C 204.75 106.097656 205.335938 105.945313 205.820313 105.769531 C 206.3125 105.605469 206.6875 105.453125 206.949219 105.328125 C 207.214844 105.199219 207.34375 105.136719 207.351563 105.128906 L 207.03125 102.644531 C 206.878906 102.683594 206.648438 102.738281 206.339844 102.8125 C 206.03125 102.882813 205.679688 102.960938 205.285156 103.035156 C 204.890625 103.113281 204.484375 103.175781 204.058594 103.234375 C 203.636719 103.292969 203.230469 103.320313 202.847656 103.320313 C 202.273438 103.320313 201.765625 103.195313 201.320313 102.949219 C 200.878906 102.699219 200.515625 102.332031 200.242188 101.847656 C 199.972656 101.363281 199.8125 100.765625 199.761719 100.054688 L 207.527344 100.230469 C 207.539063 100.191406 207.566406 100.132813 207.601563 100.042969 C 207.632813 99.957031 207.671875 99.863281 207.703125 99.769531 C 207.742188 99.683594 207.765625 99.613281 207.777344 99.558594 C 207.796875 99.535156 207.820313 99.5 207.839844 99.460938 C 207.863281 99.410156 207.882813 99.382813 207.882813 99.382813 C 207.898438 99.234375 207.917969 99.074219 207.933594 98.894531 C 207.949219 98.714844 207.957031 98.53125 207.957031 98.351563 C 207.949219 96.921875 207.710938 95.726563 207.238281 94.769531 C 206.765625 93.8125 206.082031 93.097656 205.191406 92.617188 C 204.304688 92.136719 203.242188 91.898438 201.992188 91.898438 Z M 185.179688 96.472656 C 185.15625 95.902344 185.285156 95.449219 185.570313 95.125 C 185.855469 94.796875 186.339844 94.632813 187.027344 94.625 C 187.703125 94.632813 188.1875 94.796875 188.46875 95.125 C 188.742188 95.449219 188.878906 95.902344 188.871094 96.472656 C 188.878906 97.027344 188.742188 97.476563 188.46875 97.808594 C 188.1875 98.140625 187.703125 98.308594 187.027344 98.316406 C 186.558594 98.316406 186.1875 98.234375 185.925781 98.082031 C 185.65625 97.925781 185.46875 97.710938 185.355469 97.441406 C 185.246094 97.167969 185.183594 96.839844 185.179688 96.472656 Z M 184.753906 107.398438 C 184.757813 107.089844 184.824219 106.800781 184.949219 106.535156 C 185.066406 106.277344 185.203125 106.050781 185.351563 105.863281 C 185.503906 105.675781 185.621094 105.53125 185.714844 105.445313 C 186.230469 105.441406 186.734375 105.453125 187.226563 105.476563 C 187.710938 105.5 188.148438 105.570313 188.546875 105.691406 C 188.933594 105.808594 189.242188 106.003906 189.472656 106.269531 C 189.703125 106.542969 189.820313 106.914063 189.824219 107.398438 C 189.824219 107.734375 189.738281 108.058594 189.554688 108.355469 C 189.371094 108.660156 189.085938 108.902344 188.714844 109.089844 C 188.34375 109.277344 187.875 109.378906 187.308594 109.386719 C 186.726563 109.378906 186.25 109.296875 185.871094 109.125 C 185.492188 108.953125 185.21875 108.71875 185.03125 108.414063 C 184.84375 108.121094 184.753906 107.785156 184.753906 107.398438 Z M 194.015625 91.507813 C 193.320313 91.597656 192.6875 91.765625 192.113281 91.992188 C 191.546875 92.230469 191.058594 92.492188 190.644531 92.78125 C 190.148438 92.496094 189.589844 92.28125 188.980469 92.128906 C 188.371094 91.972656 187.714844 91.898438 187.027344 91.898438 C 185.871094 91.898438 184.875 92.066406 184.035156 92.417969 C 183.195313 92.761719 182.542969 93.277344 182.082031 93.957031 C 181.617188 94.640625 181.390625 95.492188 181.386719 96.507813 C 181.390625 97.449219 181.597656 98.257813 182.003906 98.9375 C 182.414063 99.613281 182.972656 100.136719 183.691406 100.515625 L 182.554688 103.390625 L 183.121094 104.382813 C 183.117188 104.382813 183.039063 104.441406 182.886719 104.558594 C 182.730469 104.683594 182.550781 104.851563 182.320313 105.074219 C 182.097656 105.296875 181.875 105.558594 181.648438 105.867188 C 181.425781 106.183594 181.242188 106.523438 181.085938 106.910156 C 180.933594 107.292969 180.855469 107.699219 180.851563 108.144531 C 180.855469 108.863281 181.023438 109.492188 181.351563 110.03125 C 181.6875 110.574219 182.148438 111.023438 182.738281 111.386719 C 183.324219 111.746094 184.007813 112.015625 184.789063 112.199219 C 185.5625 112.382813 186.410156 112.46875 187.308594 112.46875 C 188.203125 112.46875 189.042969 112.335938 189.820313 112.0625 C 190.601563 111.800781 191.289063 111.421875 191.882813 110.925781 C 192.480469 110.433594 192.949219 109.84375 193.285156 109.167969 C 193.621094 108.488281 193.792969 107.726563 193.800781 106.902344 C 193.804688 106.128906 193.699219 105.445313 193.484375 104.855469 C 193.273438 104.265625 192.910156 103.769531 192.410156 103.363281 C 191.902344 102.964844 191.222656 102.664063 190.359375 102.457031 C 189.496094 102.253906 188.417969 102.148438 187.132813 102.148438 L 186.386719 102.148438 L 186.386719 101.046875 L 187.027344 101.046875 C 188.265625 101.039063 189.308594 100.839844 190.140625 100.433594 C 190.980469 100.03125 191.605469 99.484375 192.035156 98.800781 C 192.453125 98.121094 192.664063 97.359375 192.664063 96.507813 C 192.664063 96.207031 192.652344 95.921875 192.625 95.652344 C 192.59375 95.386719 192.539063 95.125 192.453125 94.878906 L 194.015625 94.734375 Z M 173.4375 94.878906 C 173.738281 94.878906 174.019531 94.96875 174.277344 95.160156 C 174.535156 95.351563 174.761719 95.636719 174.9375 96.023438 C 175.117188 96.40625 175.230469 96.886719 175.28125 97.464844 L 171.199219 97.464844 C 171.242188 96.84375 171.335938 96.355469 171.488281 96 C 171.636719 95.644531 171.824219 95.386719 172.039063 95.226563 C 172.261719 95.066406 172.492188 94.964844 172.734375 94.929688 C 172.976563 94.890625 173.214844 94.871094 173.4375 94.878906 Z M 173.367188 91.898438 C 172.113281 91.898438 171.019531 92.179688 170.074219 92.738281 C 169.125 93.292969 168.394531 94.109375 167.863281 95.183594 C 167.332031 96.269531 167.0625 97.59375 167.050781 99.167969 C 167.058594 100.335938 167.21875 101.386719 167.527344 102.296875 C 167.839844 103.207031 168.273438 103.976563 168.832031 104.601563 C 169.386719 105.238281 170.039063 105.710938 170.777344 106.019531 C 171.523438 106.339844 172.328125 106.492188 173.1875 106.476563 C 174.019531 106.449219 174.765625 106.371094 175.445313 106.234375 C 176.121094 106.097656 176.707031 105.945313 177.191406 105.769531 C 177.683594 105.605469 178.058594 105.453125 178.320313 105.328125 C 178.589844 105.199219 178.71875 105.136719 178.722656 105.128906 L 178.402344 102.644531 C 178.25 102.683594 178.019531 102.738281 177.714844 102.8125 C 177.40625 102.882813 177.046875 102.960938 176.660156 103.035156 C 176.265625 103.113281 175.855469 103.175781 175.433594 103.234375 C 175.007813 103.292969 174.601563 103.320313 174.21875 103.320313 C 173.644531 103.320313 173.136719 103.195313 172.691406 102.949219 C 172.25 102.699219 171.886719 102.332031 171.617188 101.847656 C 171.34375 101.363281 171.1875 100.765625 171.132813 100.054688 L 178.898438 100.230469 C 178.914063 100.191406 178.933594 100.132813 178.96875 100.042969 C 179.007813 99.957031 179.042969 99.863281 179.078125 99.769531 C 179.113281 99.683594 179.136719 99.613281 179.148438 99.558594 C 179.164063 99.535156 179.191406 99.5 179.214844 99.460938 C 179.238281 99.410156 179.253906 99.382813 179.253906 99.382813 C 179.273438 99.234375 179.292969 99.074219 179.300781 98.894531 C 179.320313 98.714844 179.328125 98.53125 179.328125 98.351563 C 179.320313 96.921875 179.085938 95.726563 178.609375 94.769531 C 178.136719 93.8125 177.449219 93.097656 176.566406 92.617188 C 175.675781 92.136719 174.613281 91.898438 173.367188 91.898438 Z M 166.09375 91.542969 C 165.394531 91.605469 164.757813 91.730469 164.175781 91.914063 C 163.605469 92.097656 163.109375 92.296875 162.691406 92.519531 C 162.261719 92.738281 161.929688 92.929688 161.695313 93.105469 L 160.949219 91.898438 L 159.601563 92.039063 C 159.425781 92.074219 159.203125 92.101563 158.953125 92.128906 C 158.695313 92.152344 158.414063 92.179688 158.113281 92.214844 L 158.113281 106.15625 L 162.191406 106.15625 L 162.191406 95.832031 C 162.195313 95.832031 162.316406 95.808594 162.535156 95.769531 C 162.753906 95.726563 163.035156 95.675781 163.386719 95.617188 C 163.730469 95.566406 164.097656 95.515625 164.476563 95.472656 C 164.863281 95.429688 165.222656 95.40625 165.5625 95.40625 Z M 137.855469 99.167969 C 137.855469 98.628906 137.894531 98.109375 137.972656 97.605469 C 138.058594 97.101563 138.199219 96.640625 138.398438 96.242188 C 138.597656 95.839844 138.863281 95.515625 139.203125 95.277344 C 139.539063 95.042969 139.96875 94.914063 140.480469 94.910156 C 141 94.914063 141.433594 95.042969 141.777344 95.277344 C 142.113281 95.515625 142.386719 95.839844 142.582031 96.242188 C 142.773438 96.640625 142.910156 97.101563 142.988281 97.605469 C 143.070313 98.109375 143.105469 98.628906 143.105469 99.167969 C 143.105469 99.703125 143.070313 100.214844 142.988281 100.730469 C 142.910156 101.238281 142.773438 101.699219 142.582031 102.117188 C 142.386719 102.53125 142.113281 102.863281 141.777344 103.113281 C 141.433594 103.359375 141 103.488281 140.480469 103.496094 C 139.96875 103.488281 139.539063 103.359375 139.203125 103.113281 C 138.863281 102.863281 138.597656 102.53125 138.398438 102.117188 C 138.199219 101.699219 138.058594 101.238281 137.972656 100.730469 C 137.894531 100.214844 137.855469 99.703125 137.855469 99.167969 Z M 133.742188 99.167969 C 133.742188 100.226563 133.898438 101.199219 134.207031 102.085938 C 134.515625 102.96875 134.960938 103.738281 135.542969 104.390625 C 136.125 105.042969 136.832031 105.542969 137.660156 105.898438 C 138.492188 106.257813 139.4375 106.433594 140.480469 106.441406 C 141.539063 106.433594 142.484375 106.257813 143.320313 105.898438 C 144.160156 105.542969 144.867188 105.042969 145.453125 104.390625 C 146.039063 103.738281 146.484375 102.96875 146.792969 102.085938 C 147.097656 101.199219 147.257813 100.226563 147.257813 99.167969 C 147.257813 98.109375 147.097656 97.132813 146.792969 96.253906 C 146.476563 95.367188 146.027344 94.597656 145.441406 93.945313 C 144.851563 93.300781 144.144531 92.796875 143.304688 92.4375 C 142.472656 92.078125 141.527344 91.902344 140.480469 91.898438 C 139.4375 91.902344 138.503906 92.078125 137.679688 92.4375 C 136.847656 92.796875 136.144531 93.300781 135.554688 93.945313 C 134.96875 94.597656 134.523438 95.367188 134.207031 96.253906 C 133.898438 97.132813 133.742188 98.109375 133.742188 99.167969 Z M 128.703125 102.539063 L 128.703125 95.230469 L 131.613281 95.230469 L 131.613281 92.394531 L 128.703125 92.394531 L 128.703125 89.128906 L 125.40625 89.589844 C 125.3125 90.027344 125.195313 90.496094 125.058594 90.996094 C 124.929688 91.5 124.808594 91.972656 124.695313 92.425781 L 122.492188 93.210938 L 122.492188 95.230469 L 124.695313 95.230469 L 124.695313 102.539063 C 124.699219 103.4375 124.859375 104.171875 125.179688 104.738281 C 125.5 105.308594 125.9375 105.734375 126.492188 106.003906 C 127.046875 106.277344 127.691406 106.40625 128.417969 106.40625 C 128.871094 106.40625 129.386719 106.347656 129.957031 106.21875 C 130.527344 106.105469 131.128906 105.925781 131.753906 105.695313 C 131.730469 105.382813 131.707031 105.140625 131.683594 104.964844 C 131.660156 104.792969 131.636719 104.65625 131.613281 104.558594 C 131.589844 104.460938 131.566406 104.363281 131.539063 104.277344 L 131.292969 102.820313 C 131.265625 102.820313 131.203125 102.828125 131.121094 102.835938 C 131.03125 102.839844 130.949219 102.839844 130.863281 102.847656 C 130.777344 102.851563 130.71875 102.855469 130.691406 102.855469 C 130.507813 102.917969 130.304688 102.96875 130.082031 103.023438 C 129.859375 103.078125 129.652344 103.101563 129.449219 103.105469 C 129.230469 103.105469 129.054688 103.0625 128.914063 102.980469 C 128.777344 102.890625 128.710938 102.746094 128.703125 102.539063 Z M 107.3125 92.25 L 107.3125 106.15625 L 111.425781 106.15625 L 111.425781 95.300781 C 111.433594 95.292969 111.550781 95.277344 111.765625 95.238281 C 111.980469 95.195313 112.253906 95.160156 112.578125 95.117188 C 112.898438 95.078125 113.230469 95.058594 113.558594 95.050781 C 113.945313 95.050781 114.296875 95.09375 114.589844 95.1875 C 114.886719 95.289063 115.121094 95.488281 115.289063 95.78125 C 115.453125 96.070313 115.539063 96.5 115.539063 97.078125 L 115.539063 106.15625 L 119.695313 106.15625 L 119.695313 97.078125 C 119.6875 96.277344 119.539063 95.554688 119.261719 94.914063 C 118.976563 94.285156 118.59375 93.738281 118.109375 93.285156 C 117.617188 92.835938 117.074219 92.492188 116.457031 92.257813 C 115.847656 92.023438 115.210938 91.898438 114.550781 91.898438 C 113.945313 91.902344 113.410156 91.957031 112.929688 92.054688 C 112.457031 92.15625 112.046875 92.273438 111.710938 92.410156 C 111.367188 92.546875 111.097656 92.667969 110.894531 92.78125 L 110.152344 91.898438 Z M 98.300781 94.878906 C 98.601563 94.878906 98.878906 94.96875 99.140625 95.160156 C 99.402344 95.351563 99.625 95.636719 99.804688 96.023438 C 99.980469 96.40625 100.09375 96.886719 100.144531 97.464844 L 96.066406 97.464844 C 96.109375 96.84375 96.203125 96.355469 96.347656 96 C 96.503906 95.644531 96.6875 95.386719 96.90625 95.226563 C 97.125 95.066406 97.355469 94.964844 97.597656 94.929688 C 97.839844 94.890625 98.078125 94.871094 98.300781 94.878906 Z M 98.230469 91.898438 C 96.976563 91.898438 95.882813 92.179688 94.9375 92.738281 C 93.988281 93.292969 93.257813 94.109375 92.726563 95.183594 C 92.195313 96.269531 91.929688 97.59375 91.914063 99.167969 C 91.921875 100.335938 92.082031 101.386719 92.386719 102.296875 C 92.703125 103.207031 93.140625 103.976563 93.695313 104.601563 C 94.253906 105.238281 94.902344 105.710938 95.640625 106.019531 C 96.386719 106.339844 97.1875 106.492188 98.054688 106.476563 C 98.878906 106.449219 99.632813 106.371094 100.3125 106.234375 C 100.984375 106.097656 101.570313 105.945313 102.058594 105.769531 C 102.546875 105.605469 102.925781 105.453125 103.183594 105.328125 C 103.453125 105.199219 103.582031 105.136719 103.585938 105.128906 L 103.269531 102.644531 C 103.113281 102.683594 102.882813 102.738281 102.574219 102.8125 C 102.265625 102.882813 101.914063 102.960938 101.523438 103.035156 C 101.128906 103.113281 100.71875 103.175781 100.292969 103.234375 C 99.875 103.292969 99.46875 103.320313 99.082031 103.320313 C 98.507813 103.320313 98 103.195313 97.554688 102.949219 C 97.113281 102.699219 96.753906 102.332031 96.480469 101.847656 C 96.210938 101.363281 96.046875 100.765625 95.996094 100.054688 L 103.765625 100.230469 C 103.773438 100.191406 103.800781 100.132813 103.835938 100.042969 C 103.871094 99.957031 103.90625 99.863281 103.941406 99.769531 C 103.980469 99.683594 104.003906 99.613281 104.011719 99.558594 C 104.03125 99.535156 104.054688 99.5 104.078125 99.460938 C 104.101563 99.410156 104.117188 99.382813 104.117188 99.382813 C 104.136719 99.234375 104.15625 99.074219 104.167969 98.894531 C 104.183594 98.714844 104.191406 98.53125 104.191406 98.351563 C 104.183594 96.921875 103.945313 95.726563 103.476563 94.769531 C 103.003906 93.8125 102.316406 93.097656 101.429688 92.617188 C 100.542969 92.136719 99.476563 91.898438 98.230469 91.898438 Z M 84.394531 88.882813 C 84.402344 89.277344 84.503906 89.636719 84.695313 89.964844 C 84.898438 90.285156 85.164063 90.546875 85.5 90.742188 C 85.832031 90.9375 86.210938 91.039063 86.632813 91.042969 C 87.035156 91.039063 87.410156 90.9375 87.746094 90.742188 C 88.082031 90.546875 88.347656 90.285156 88.550781 89.964844 C 88.757813 89.636719 88.859375 89.277344 88.863281 88.882813 C 88.859375 88.484375 88.757813 88.125 88.550781 87.796875 C 88.347656 87.472656 88.082031 87.214844 87.746094 87.019531 C 87.410156 86.820313 87.035156 86.722656 86.632813 86.71875 C 86.210938 86.722656 85.832031 86.820313 85.5 87.019531 C 85.164063 87.214844 84.898438 87.472656 84.695313 87.796875 C 84.503906 88.125 84.402344 88.484375 84.394531 88.882813 Z M 88.828125 106.15625 L 88.828125 92.425781 L 83.191406 92.855469 L 83.191406 95.40625 L 84.890625 95.726563 L 84.890625 106.15625 Z M 61.265625 92.25 L 61.265625 106.15625 L 65.382813 106.15625 L 65.382813 95.335938 C 65.386719 95.335938 65.453125 95.316406 65.582031 95.289063 C 65.710938 95.265625 65.871094 95.230469 66.066406 95.195313 C 66.257813 95.160156 66.445313 95.125 66.640625 95.09375 C 66.832031 95.070313 66.988281 95.050781 67.121094 95.050781 C 67.347656 95.042969 67.59375 95.070313 67.84375 95.128906 C 68.085938 95.1875 68.300781 95.34375 68.480469 95.578125 C 68.652344 95.816406 68.746094 96.203125 68.753906 96.722656 L 68.753906 106.15625 L 72.832031 106.15625 L 72.832031 95.335938 C 72.835938 95.335938 72.90625 95.316406 73.042969 95.289063 C 73.179688 95.265625 73.34375 95.230469 73.546875 95.195313 C 73.742188 95.160156 73.9375 95.125 74.128906 95.09375 C 74.328125 95.070313 74.488281 95.050781 74.601563 95.050781 C 74.753906 95.050781 74.910156 95.050781 75.082031 95.070313 C 75.253906 95.085938 75.421875 95.144531 75.578125 95.238281 C 75.742188 95.332031 75.871094 95.496094 75.972656 95.726563 C 76.070313 95.960938 76.125 96.289063 76.128906 96.722656 L 76.128906 106.15625 L 80.242188 106.15625 L 80.242188 96.722656 C 80.238281 95.773438 80.121094 95 79.902344 94.390625 C 79.675781 93.785156 79.382813 93.308594 79.019531 92.96875 C 78.65625 92.625 78.257813 92.378906 77.832031 92.230469 C 77.402344 92.074219 76.980469 91.980469 76.566406 91.941406 C 76.152344 91.90625 75.78125 91.890625 75.457031 91.898438 C 74.988281 91.898438 74.527344 91.941406 74.0625 92.039063 C 73.59375 92.128906 73.144531 92.25 72.714844 92.40625 C 72.285156 92.558594 71.902344 92.738281 71.554688 92.925781 C 71.164063 92.636719 70.769531 92.410156 70.363281 92.265625 C 69.960938 92.113281 69.554688 92.015625 69.148438 91.964844 C 68.746094 91.914063 68.339844 91.890625 67.933594 91.898438 C 67.574219 91.902344 67.207031 91.949219 66.835938 92.039063 C 66.457031 92.132813 66.09375 92.25 65.746094 92.394531 C 65.398438 92.53125 65.09375 92.667969 64.8125 92.820313 L 64.070313 91.898438 Z M 53.25 88.882813 C 53.257813 89.277344 53.351563 89.636719 53.550781 89.964844 C 53.75 90.285156 54.015625 90.546875 54.355469 90.742188 C 54.683594 90.9375 55.066406 91.039063 55.484375 91.042969 C 55.890625 91.039063 56.265625 90.9375 56.601563 90.742188 C 56.9375 90.546875 57.203125 90.285156 57.40625 89.964844 C 57.613281 89.636719 57.710938 89.277344 57.71875 88.882813 C 57.710938 88.484375 57.613281 88.125 57.40625 87.796875 C 57.203125 87.472656 56.9375 87.214844 56.601563 87.019531 C 56.265625 86.820313 55.890625 86.722656 55.484375 86.71875 C 55.066406 86.722656 54.683594 86.820313 54.355469 87.019531 C 54.015625 87.214844 53.75 87.472656 53.550781 87.796875 C 53.351563 88.125 53.257813 88.484375 53.25 88.882813 Z M 57.683594 106.15625 L 57.683594 92.425781 L 52.042969 92.855469 L 52.042969 95.40625 L 53.746094 95.726563 L 53.746094 106.15625 Z M 36.824219 92.144531 C 37 92.667969 37.195313 93.238281 37.410156 93.847656 C 37.617188 94.453125 37.832031 95.085938 38.058594 95.71875 C 38.277344 96.355469 38.503906 96.988281 38.722656 97.601563 C 38.941406 98.214844 39.144531 98.800781 39.34375 99.347656 L 41.757813 106.15625 L 46.046875 106.15625 L 50.941406 92.144531 L 46.6875 92.144531 C 46.378906 93.105469 46.066406 94.113281 45.746094 95.164063 C 45.429688 96.214844 45.117188 97.265625 44.8125 98.308594 C 44.496094 99.363281 44.203125 100.367188 43.917969 101.332031 L 43.882813 101.4375 L 41.082031 92.144531 Z M 26.394531 99.167969 C 26.394531 98.628906 26.429688 98.109375 26.511719 97.605469 C 26.597656 97.101563 26.738281 96.640625 26.941406 96.242188 C 27.132813 95.839844 27.398438 95.515625 27.742188 95.277344 C 28.082031 95.042969 28.503906 94.914063 29.019531 94.910156 C 29.539063 94.914063 29.96875 95.042969 30.3125 95.277344 C 30.652344 95.515625 30.921875 95.839844 31.117188 96.242188 C 31.3125 96.640625 31.449219 97.101563 31.523438 97.605469 C 31.605469 98.109375 31.644531 98.628906 31.644531 99.167969 C 31.644531 99.703125 31.605469 100.214844 31.523438 100.730469 C 31.449219 101.238281 31.3125 101.699219 31.117188 102.117188 C 30.921875 102.53125 30.652344 102.863281 30.3125 103.113281 C 29.96875 103.359375 29.539063 103.488281 29.019531 103.496094 C 28.503906 103.488281 28.082031 103.359375 27.742188 103.113281 C 27.398438 102.863281 27.132813 102.53125 26.941406 102.117188 C 26.738281 101.699219 26.597656 101.238281 26.511719 100.730469 C 26.429688 100.214844 26.394531 99.703125 26.394531 99.167969 Z M 22.277344 99.167969 C 22.277344 100.226563 22.4375 101.199219 22.746094 102.085938 C 23.054688 102.96875 23.496094 103.738281 24.082031 104.390625 C 24.660156 105.042969 25.371094 105.542969 26.199219 105.898438 C 27.035156 106.257813 27.972656 106.433594 29.019531 106.441406 C 30.078125 106.433594 31.023438 106.257813 31.855469 105.898438 C 32.695313 105.542969 33.40625 105.042969 33.992188 104.390625 C 34.574219 103.738281 35.019531 102.96875 35.328125 102.085938 C 35.636719 101.199219 35.792969 100.226563 35.792969 99.167969 C 35.792969 98.109375 35.636719 97.132813 35.328125 96.253906 C 35.011719 95.367188 34.566406 94.597656 33.980469 93.945313 C 33.390625 93.300781 32.679688 92.796875 31.84375 92.4375 C 31.011719 92.078125 30.066406 91.902344 29.019531 91.898438 C 27.980469 91.902344 27.042969 92.078125 26.214844 92.4375 C 25.382813 92.796875 24.679688 93.300781 24.09375 93.945313 C 23.511719 94.597656 23.058594 95.367188 22.746094 96.253906 C 22.4375 97.132813 22.277344 98.109375 22.277344 99.167969 Z M 0 92.25 L 0 106.15625 L 4.113281 106.15625 L 4.113281 95.335938 C 4.121094 95.335938 4.1875 95.316406 4.316406 95.289063 C 4.449219 95.265625 4.605469 95.230469 4.800781 95.195313 C 4.988281 95.160156 5.179688 95.125 5.375 95.09375 C 5.5625 95.070313 5.726563 95.050781 5.855469 95.050781 C 6.085938 95.042969 6.328125 95.070313 6.574219 95.128906 C 6.824219 95.1875 7.039063 95.34375 7.210938 95.578125 C 7.382813 95.816406 7.480469 96.203125 7.484375 96.722656 L 7.484375 106.15625 L 11.566406 106.15625 L 11.566406 95.335938 C 11.574219 95.335938 11.644531 95.316406 11.78125 95.289063 C 11.914063 95.265625 12.082031 95.230469 12.28125 95.195313 C 12.476563 95.160156 12.671875 95.125 12.867188 95.09375 C 13.058594 95.070313 13.222656 95.050781 13.339844 95.050781 C 13.488281 95.050781 13.644531 95.050781 13.820313 95.070313 C 13.992188 95.085938 14.15625 95.144531 14.3125 95.238281 C 14.472656 95.332031 14.601563 95.496094 14.707031 95.726563 C 14.804688 95.960938 14.859375 96.289063 14.863281 96.722656 L 14.863281 106.15625 L 18.976563 106.15625 L 18.976563 96.722656 C 18.972656 95.773438 18.855469 95 18.640625 94.390625 C 18.410156 93.785156 18.117188 93.308594 17.757813 92.96875 C 17.390625 92.625 16.992188 92.378906 16.566406 92.230469 C 16.136719 92.074219 15.71875 91.980469 15.304688 91.941406 C 14.886719 91.90625 14.515625 91.890625 14.191406 91.898438 C 13.726563 91.898438 13.261719 91.941406 12.792969 92.039063 C 12.328125 92.128906 11.878906 92.25 11.449219 92.40625 C 11.019531 92.558594 10.640625 92.738281 10.289063 92.925781 C 9.898438 92.636719 9.5 92.410156 9.097656 92.265625 C 8.695313 92.113281 8.289063 92.015625 7.882813 91.964844 C 7.480469 91.914063 7.074219 91.890625 6.671875 91.898438 C 6.308594 91.902344 5.941406 91.949219 5.570313 92.039063 C 5.191406 92.132813 4.832031 92.25 4.484375 92.394531 C 4.132813 92.53125 3.824219 92.667969 3.550781 92.820313 L 2.800781 91.898438 L 0 92.25 "/>
</g>
<g clip-path="url(#clip2)" clip-rule="nonzero">
<path style=" stroke:none;fill-rule:nonzero;fill:rgb(74.900818%,19.215393%,10.195923%);fill-opacity:1;" d="M 140.554688 60.417969 C 151.148438 60.417969 153.835938 49.105469 153.835938 38.511719 C 153.835938 27.746094 151.148438 16.972656 140.554688 16.972656 C 130.144531 16.972656 127.273438 27.746094 127.273438 38.511719 C 127.273438 49.105469 130.144531 60.417969 140.554688 60.417969 Z M 140.554688 1.714844 C 161.738281 1.714844 174.84375 17.152344 174.84375 38.511719 C 174.84375 59.875 161.917969 75.316406 140.554688 75.316406 C 119.367188 75.316406 106.449219 59.875 106.449219 38.511719 C 106.449219 17.152344 119.550781 1.714844 140.554688 1.714844 Z M 220.863281 19.558594 C 214.222656 19.558594 203.808594 21.714844 203.808594 21.714844 L 203.808594 73.953125 L 183.164063 73.953125 L 183.164063 3.402344 C 186.21875 3.042969 188.910156 2.863281 190.703125 2.503906 L 197.523438 1.785156 L 201.296875 7.890625 C 204.878906 5.382813 212.9375 0.902344 223.5 -0.00390625 L 223.558594 -0.00390625 Z M 244.914063 29.972656 L 265.5625 29.972656 C 264.839844 21.171875 260.714844 16.863281 256.230469 16.863281 C 251.738281 16.863281 245.636719 17.226563 244.914063 29.972656 Z M 286.023438 34.457031 C 286.023438 36.25 285.847656 38.226563 285.667969 39.664063 C 285.667969 39.664063 285.308594 40.382813 285.128906 40.5625 C 284.945313 41.277344 284.050781 43.433594 283.871094 43.972656 L 244.558594 43.074219 C 245.273438 53.847656 251.5625 59.589844 260.175781 59.589844 C 267.894531 59.589844 278.308594 56.894531 281.355469 56.179688 L 282.972656 68.746094 C 282.972656 68.746094 271.660156 75.207031 254.96875 75.566406 C 237.554688 75.925781 223.910156 62.28125 223.910156 38.585938 C 223.910156 14.710938 237.015625 1.785156 255.863281 1.785156 C 274.71875 1.785156 286.023438 12.738281 286.023438 34.457031 Z M 308.105469 1.625 L 311.878906 6.109375 C 314.925781 4.496094 321.214844 1.625 330.371094 1.625 C 343.652344 1.625 356.394531 11.675781 356.394531 27.832031 L 356.394531 73.789063 L 335.394531 73.789063 L 335.394531 27.832031 C 335.394531 19.035156 331.265625 17.601563 325.339844 17.601563 C 320.496094 17.601563 314.570313 18.859375 314.570313 18.859375 L 314.570313 73.789063 L 293.746094 73.789063 L 293.746094 3.417969 Z M 402.652344 58.347656 L 402.652344 45.425781 L 391.886719 45.425781 C 387.757813 45.425781 384.703125 48.296875 384.703125 52.066406 C 384.703125 55.835938 387.757813 59.605469 391.886719 59.605469 C 396.371094 59.605469 402.652344 58.347656 402.652344 58.347656 Z M 431.71875 70.207031 C 431.234375 70.433594 420.980469 75.230469 414.140625 75.402344 C 409.296875 75.585938 404.632813 69.660156 404.632813 69.660156 C 401.039063 71.8125 393.5 75.402344 385.777344 75.402344 C 375.546875 75.402344 363.699219 66.96875 363.699219 53.503906 C 363.699219 39.859375 375.546875 31.78125 386.855469 31.78125 C 393.859375 31.78125 402.652344 32.859375 402.652344 32.859375 L 402.652344 25.675781 C 402.652344 20.832031 398.886719 17.601563 393.859375 17.601563 C 389.730469 17.601563 375.726563 21.371094 375.726563 21.371094 L 370.707031 8.800781 C 370.707031 8.800781 388.292969 1.625 397.269531 1.625 C 408.578125 1.625 423.117188 8.984375 423.117188 24.0625 L 423.117188 58.707031 L 429.042969 58.707031 L 431.71875 70.113281 Z M 14.179688 1.714844 L 17.949219 6.382813 C 22.078125 4.226563 28.363281 1.714844 33.75 1.714844 C 39.851563 1.714844 46.132813 2.429688 52.058594 6.921875 C 57.261719 4.050781 64.804688 1.714844 71.804688 1.714844 C 79.882813 1.714844 96.039063 2.074219 96.039063 26.128906 L 96.039063 73.878906 L 75.214844 73.878906 L 75.214844 26.128906 C 75.214844 17.335938 70.367188 17.691406 67.496094 17.691406 C 65.160156 17.691406 58.523438 19.128906 58.523438 19.128906 L 58.523438 73.878906 L 37.878906 73.878906 L 37.878906 26.128906 C 37.878906 18.050781 33.03125 17.691406 29.621094 17.691406 C 27.105469 17.691406 20.824219 19.128906 20.824219 19.128906 L 20.824219 73.878906 L 0 73.878906 L 0 3.511719 L 14.179688 1.714844 "/>
</g>
</g>
</svg>
