<svg enable-background="new 0 0 24 24" height="512" viewBox="0 0 24 24" width="512" xmlns="http://www.w3.org/2000/svg"><circle cx="12" cy="3" fill="#2196f3" r="2.43"/><path d="m13.935 7.225h-3.871c-1.414 0-2.564 1.199-2.564 2.673v.702c0 .373.302.675.675.675s.675-.302.675-.675h6.3c0 .373.302.675.675.675s.675-.302.675-.675v-.702c0-1.474-1.15-2.673-2.565-2.673z" fill="#2196f3"/><path d="m19.059 10.962c-.128-.165-.325-.262-.534-.262h-13.05c-.209 0-.406.097-.534.262-.127.166-.171.381-.119.583l2.925 11.25c.077.297.345.505.653.505h7.2c.308 0 .576-.208.653-.505l2.925-11.25c.053-.203.009-.417-.119-.583z" fill="#607d8b"/><path d="m15.115 13.998c-.115-.15-.293-.238-.483-.238h-5.265c-.189 0-.367.088-.483.238-.115.15-.153.345-.104.527l1.418 5.265c.072.265.312.45.587.45h2.43c.274 0 .515-.184.587-.45l1.418-5.265c.048-.182.01-.377-.105-.527z" fill="#eceff1"/><path d="m12 6c-1.654 0-3-1.346-3-3s1.346-3 3-3 3 1.346 3 3-1.346 3-3 3zm0-4.5c-.827 0-1.5.673-1.5 1.5s.673 1.5 1.5 1.5 1.5-.673 1.5-1.5-.673-1.5-1.5-1.5z"/><path d="m16.25 11.5c-.414 0-.75-.336-.75-.75v-.78c0-.811-.605-1.47-1.35-1.47h-4.3c-.745 0-1.35.66-1.35 1.47v.78c0 .414-.336.75-.75.75s-.75-.336-.75-.75v-.78c0-1.637 1.278-2.97 2.85-2.97h4.301c1.571 0 2.849 1.333 2.849 2.97v.78c0 .414-.336.75-.75.75z"/><path d="m16 24h-8c-.342 0-.64-.231-.726-.561l-3.25-12.5c-.059-.225-.01-.464.132-.648.143-.184.362-.291.594-.291h14.5c.232 0 .451.107.594.291.142.184.19.423.132.648l-3.25 12.5c-.086.33-.384.561-.726.561zm-7.42-1.5h6.84l2.86-11h-12.56z"/><path d="m13.5 21h-3c-.339 0-.636-.228-.725-.555l-1.75-6.5c-.061-.225-.013-.466.129-.651.143-.186.363-.294.596-.294h6.5c.233 0 .453.108.596.294.142.185.189.426.129.651l-1.75 6.5c-.089.327-.386.555-.725.555zm-2.425-1.5h1.85l1.347-5h-4.543z"/><path d="m20.25 24h-16.5c-.414 0-.75-.336-.75-.75s.336-.75.75-.75h16.5c.414 0 .75.336.75.75s-.336.75-.75.75z"/></svg>